<svg width="48" height="48" viewBox="0 0 48 48" fill="none" xmlns="http://www.w3.org/2000/svg">
<path d="M24 40C15.1796 40 8 32.8205 8 24C8 15.1746 15.1796 8 24 8C32.8205 8 40 15.1796 40 24C40 32.8205 32.8254 40 24 40ZM24 9.11857C15.7955 9.11857 9.11858 15.7955 9.11858 24.0049C9.11858 32.2094 15.7955 38.8864 24 38.8864C32.2045 38.8864 38.8814 32.2094 38.8814 24.0049C38.8864 15.7906 32.2095 9.11857 24 9.11857Z" fill="white"/>
<path d="M30.2433 15.8438H17.7566C16.7021 15.8438 15.8447 16.7012 15.8447 17.7557V30.2423C15.8447 31.2968 16.7021 32.1542 17.7566 32.1542H30.2433C31.2978 32.1542 32.1552 31.2968 32.1552 30.2423V17.7557C32.1552 16.7012 31.2978 15.8438 30.2433 15.8438ZM20.9448 29.3159H18.7175V22.1166H20.9448V29.3159ZM19.8608 21.1311C19.1364 21.1311 18.5549 20.5447 18.5549 19.8253C18.5549 19.1058 19.1364 18.5194 19.8608 18.5194C20.5802 18.5194 21.1666 19.1058 21.1666 19.8253C21.1666 20.5496 20.5802 21.1311 19.8608 21.1311ZM29.2873 29.3159H27.0896V25.8025C27.0896 24.9697 27.0502 23.9004 25.907 23.9004C24.749 23.9004 24.5075 24.8071 24.5075 25.7433V29.3159H22.3394V22.1166H24.5075V23.0972C24.8032 22.5355 25.5325 21.9885 26.6165 21.9885C28.8734 21.9885 29.2824 23.4224 29.2824 25.3541V29.3159H29.2873Z" fill="white"/>
</svg>
