<svg width="88" height="88" viewBox="0 0 88 88" fill="none" xmlns="http://www.w3.org/2000/svg">
<path d="M22.0073 81.0919L2.52126 31.8315C1.00778 27.9549 2.89963 23.5111 6.77791 21.9983L56.1551 2.52102C60.0334 1.00823 64.4792 2.89922 65.9927 6.77576L85.4787 56.2253C86.9922 60.1019 85.1004 64.5457 81.2221 66.0585L31.8449 85.4412C27.872 87.0485 23.5208 85.063 22.0073 81.0919Z" fill="#D5F4F7" fill-opacity="0.5"/>
<path d="M32.0342 29C34.3888 27.141 37.5802 26 41.092 26C44.5478 26 47.6918 27.1044 50.0342 28.9097" stroke="#210049" stroke-linecap="round"/>
<path d="M35.2751 26.8865C33.8876 25.4117 33.0342 23.4067 33.0342 21.1964C33.0342 16.6694 36.6154 13 41.0336 13C45.453 13 49.0342 16.6694 49.0342 21.1964C49.0342 23.4635 48.1359 25.5156 46.6848 27" stroke="#210049" stroke-width="2"/>
<path d="M36.6635 23.8908C36.2631 23.1273 36.0342 22.2468 36.0342 21.3104C36.0342 18.3775 38.2725 16 41.0348 16C43.7959 16 46.0342 18.3775 46.0342 21.3104C46.0342 22.3886 45.8175 23.1624 45.2983 24" stroke="#210049" stroke-linecap="round" stroke-linejoin="round"/>
<path d="M33.8455 23.3205C23.5285 26.1848 17.0342 34.6697 17.0342 44.654C17.0342 56.9953 28.4567 67 42.5464 67C50.3998 67 57.4238 63.8915 62.1032 59.0023C71.6338 53.8104 71.3013 46.1142 70.8609 43.4725C70.7701 42.9344 70.3861 42.5681 69.9603 42.605L67.9691 42.7805C67.3912 36.6894 64.0246 31.2915 58.9906 27.5699L59.3857 26.3082C59.7648 25.0935 59.2654 23.7199 58.2998 23.3205C57.7036 23.0738 57.0509 23.2595 56.5895 23.8064L55.3209 25.311C53.3248 24.2973 51.9298 23.5126 49.638 23" stroke="#210049" stroke-width="2"/>
<path d="M25 61V67.7654C25 68.9997 25.9708 70 27.1688 70H32.8301C34.0281 70 35 68.9997 35 67.7654V65.5" stroke="#210049" stroke-width="2"/>
<path d="M48 66.5156V68.3057C48 69.2414 48.7626 70 49.7045 70H56.2955C57.2363 70 58 69.2414 58 68.3057V62" stroke="#210049" stroke-width="2"/>
<path d="M58.0342 39C58.0342 37.8955 58.9292 37 60.0337 37C61.1382 37 62.0342 37.8955 62.0342 39" stroke="#210049" stroke-linecap="round"/>
<path fill-rule="evenodd" clip-rule="evenodd" d="M21.0342 31C21.0342 32.1045 20.139 33 19.0342 33C17.9294 33 17.0342 32.1045 17.0342 31C17.0342 29.8955 17.9294 29 19.0342 29C20.139 29 21.0342 29.8955 21.0342 31V31Z" stroke="#210049"/>
<path d="M17.0343 31C17.0343 31 16.5728 28.2991 19.0343 26.5" stroke="#210049" stroke-linecap="round"/>
</svg>
