<svg width="84" height="84" viewBox="0 0 84 84" fill="none" xmlns="http://www.w3.org/2000/svg">
<path d="M20.0073 79.0919L0.521257 29.8315C-0.99222 25.9549 0.899626 21.5111 4.77791 19.9983L54.1551 0.521023C58.0334 -0.991774 62.4792 0.899221 63.9927 4.77576L83.4787 54.2253C84.9922 58.1019 83.1004 62.5457 79.2221 64.0585L29.8449 83.4412C25.872 85.0485 21.5208 83.063 20.0073 79.0919Z" fill="#D5F4F7" fill-opacity="0.5"/>
<path fill-rule="evenodd" clip-rule="evenodd" d="M36.7787 36.3726C36.4423 35.9546 35.8326 35.8757 35.4001 36.2001C34.9582 36.5314 34.8687 37.1582 35.2001 37.6001L36.0001 37.0001C35.2001 37.6001 35.2005 37.6006 35.2009 37.6012L35.2018 37.6024L35.2036 37.6047L35.2075 37.6098L35.2162 37.621C35.2224 37.629 35.2296 37.6379 35.2377 37.6477C35.2538 37.6672 35.2736 37.6903 35.2973 37.7164C35.3448 37.7685 35.4078 37.8324 35.488 37.9037C35.6489 38.0467 35.8774 38.218 36.1857 38.3824C36.8078 38.7142 37.7209 39.0001 39.0001 39.0001C40.2792 39.0001 41.1923 38.7142 41.8144 38.3824C42.1227 38.218 42.3512 38.0467 42.5121 37.9037C42.5923 37.8324 42.6553 37.7685 42.7028 37.7164C42.7265 37.6903 42.7463 37.6672 42.7625 37.6477C42.7705 37.6379 42.7777 37.629 42.7839 37.621L42.7927 37.6098L42.7965 37.6047L42.7983 37.6024L42.7992 37.6012C42.7996 37.6006 42.8001 37.6001 42.0001 37.0001L42.8001 37.6001C43.1314 37.1582 43.0419 36.5314 42.6001 36.2001C42.1676 35.8757 41.5578 35.9546 41.2214 36.3726C41.2161 36.3782 41.2036 36.3909 41.1834 36.4089C41.1332 36.4534 41.0337 36.5321 40.8732 36.6177C40.5578 36.7859 39.9709 37.0001 39.0001 37.0001C38.0292 37.0001 37.4423 36.7859 37.1269 36.6177C36.9664 36.5321 36.8669 36.4534 36.8168 36.4089C36.7965 36.3909 36.7841 36.3782 36.7787 36.3726Z" fill="#210049"/>
<path fill-rule="evenodd" clip-rule="evenodd" d="M50.7787 36.3726C50.4423 35.9546 49.8326 35.8757 49.4001 36.2001C48.9582 36.5314 48.8687 37.1582 49.2001 37.6001L50.0001 37.0001C49.2001 37.6001 49.2005 37.6006 49.2009 37.6012L49.2018 37.6024L49.2036 37.6047L49.2075 37.6098L49.2162 37.621C49.2224 37.629 49.2296 37.6379 49.2377 37.6477C49.2538 37.6672 49.2736 37.6903 49.2973 37.7164C49.3448 37.7685 49.4078 37.8324 49.488 37.9037C49.6489 38.0467 49.8774 38.218 50.1857 38.3824C50.8078 38.7142 51.7209 39.0001 53.0001 39.0001C54.2792 39.0001 55.1923 38.7142 55.8144 38.3824C56.1227 38.218 56.3512 38.0467 56.5121 37.9037C56.5923 37.8324 56.6553 37.7685 56.7028 37.7164C56.7265 37.6903 56.7463 37.6672 56.7625 37.6477C56.7705 37.6379 56.7777 37.629 56.7839 37.621L56.7927 37.6098L56.7965 37.6047L56.7983 37.6024L56.7992 37.6012C56.7996 37.6006 56.8001 37.6001 56.0001 37.0001L56.8001 37.6001C57.1314 37.1582 57.0419 36.5314 56.6001 36.2001C56.1676 35.8757 55.5578 35.9546 55.2214 36.3726C55.2161 36.3782 55.2036 36.3909 55.1834 36.4089C55.1332 36.4534 55.0337 36.5321 54.8732 36.6177C54.5578 36.7859 53.9709 37.0001 53.0001 37.0001C52.0292 37.0001 51.4423 36.7859 51.1269 36.6177C50.9664 36.5321 50.8669 36.4534 50.8168 36.4089C50.7965 36.3909 50.7841 36.3782 50.7787 36.3726Z" fill="#210049"/>
<path fill-rule="evenodd" clip-rule="evenodd" d="M38.8918 47.5472C38.6431 47.0573 38.0451 46.8595 37.553 47.1055C37.059 47.3525 36.8588 47.9532 37.1058 48.4472L38.0002 48C37.1058 48.4472 37.1061 48.4477 37.1063 48.4483L37.1069 48.4495L37.1083 48.4521L37.1115 48.4585L37.1204 48.4757C37.1274 48.4891 37.1366 48.5062 37.1479 48.5268C37.1706 48.5681 37.2022 48.6234 37.2431 48.6908C37.3249 48.8256 37.4446 49.0091 37.6065 49.225C37.9299 49.6562 38.4246 50.2201 39.1255 50.7808C40.5401 51.9125 42.7573 53 46.0002 53C49.2431 53 51.4604 51.9125 52.8749 50.7808C53.5758 50.2201 54.0705 49.6562 54.394 49.225C54.5559 49.0091 54.6755 48.8256 54.7574 48.6908C54.7983 48.6234 54.8298 48.5681 54.8525 48.5268C54.8639 48.5062 54.873 48.4891 54.88 48.4757L54.8889 48.4585L54.8922 48.4521L54.8935 48.4495L54.8941 48.4483C54.8944 48.4477 54.8946 48.4472 54.0286 48.0142L54.8946 48.4472C55.1416 47.9532 54.9414 47.3525 54.4474 47.1055C53.9553 46.8595 53.3573 47.0573 53.1086 47.5472L53.1001 47.563C53.0905 47.5803 53.0732 47.6109 53.0478 47.6529C52.9968 47.7369 52.9133 47.8658 52.794 48.025C52.5549 48.3437 52.1746 48.7798 51.6255 49.2191C50.5401 50.0875 48.7573 51 46.0002 51C43.2431 51 41.4604 50.0875 40.3749 49.2191C39.8258 48.7798 39.4455 48.3437 39.2065 48.025C39.0871 47.8658 39.0037 47.7369 38.9527 47.6529C38.9272 47.6109 38.9099 47.5803 38.9004 47.563L38.8918 47.5472ZM53.1063 47.5518L53.1068 47.5508L53.1075 47.5493L53.1086 47.5472C53.1078 47.5487 53.1071 47.5502 53.1063 47.5518Z" fill="#210049"/>
<path fill-rule="evenodd" clip-rule="evenodd" d="M15 25C15 22.2386 17.2386 20 20 20H64C66.7614 20 69 22.2386 69 25V59C69 61.7614 66.7614 64 64 64H20C17.2386 64 15 61.7614 15 59V53.5C15 52.9477 15.4477 52.5 16 52.5C16.5523 52.5 17 52.9477 17 53.5V59C17 60.6569 18.3431 62 20 62H64C65.6569 62 67 60.6569 67 59V25C67 23.3431 65.6569 22 64 22H20C18.3431 22 17 23.3431 17 25V27.3043H36C36.5523 27.3043 37 27.7521 37 28.3043C37 28.8566 36.5523 29.3043 36 29.3043H17V40.5C17 41.0523 16.5523 41.5 16 41.5C15.4477 41.5 15 41.0523 15 40.5V25Z" fill="#210049"/>
<path fill-rule="evenodd" clip-rule="evenodd" d="M26 42H16C14.8954 42 14 42.8954 14 44V50C14 51.1046 14.8954 52 16 52H26C27.1046 52 28 51.1046 28 50V44C28 42.8954 27.1046 42 26 42ZM16 40C13.7909 40 12 41.7909 12 44V50C12 52.2091 13.7909 54 16 54H26C28.2091 54 30 52.2091 30 50V44C30 41.7909 28.2091 40 26 40H16Z" fill="#210049"/>
<path fill-rule="evenodd" clip-rule="evenodd" d="M24 45H22C21.4477 45 21 45.4477 21 46V48C21 48.5523 21.4477 49 22 49H24C24.5523 49 25 48.5523 25 48V46C25 45.4477 24.5523 45 24 45ZM22 44C20.8954 44 20 44.8954 20 46V48C20 49.1046 20.8954 50 22 50H24C25.1046 50 26 49.1046 26 48V46C26 44.8954 25.1046 44 24 44H22Z" fill="#210049"/>
</svg>
