<svg width="84" height="84" viewBox="0 0 84 84" fill="none" xmlns="http://www.w3.org/2000/svg">
<path d="M20.0073 79.0919L0.521257 29.8315C-0.99222 25.9549 0.899626 21.5111 4.77791 19.9983L54.1551 0.521023C58.0334 -0.991774 62.4792 0.899221 63.9927 4.77576L83.4787 54.2253C84.9922 58.1019 83.1004 62.5457 79.2221 64.0585L29.8449 83.4412C25.872 85.0485 21.5208 83.063 20.0073 79.0919Z" fill="#D5F4F7" fill-opacity="0.5"/>
<path d="M18.1383 27.8336L63.6901 17.7339C65.1769 17.4042 66.472 18.7911 66.0414 20.252L53.369 63.2407C52.9748 64.5776 51.3683 65.1116 50.2523 64.2765L41.5328 57.7516C41.1869 57.4928 40.7665 57.3529 40.3345 57.3529H28.5556C27.451 57.3529 26.5556 56.4575 26.5556 55.3529V43.644C26.5556 43.1891 26.4005 42.7478 26.1159 42.3929L17.0109 31.0373C16.0841 29.8814 16.6919 28.1543 18.1383 27.8336Z" stroke="#210049" stroke-width="2" stroke-linejoin="round"/>
<path d="M27 57L66 18M66 18L27 42.7143M66 18L41.2857 57" stroke="#210049"/>
<path d="M31.1272 32.2849C30.8691 31.2432 30.9945 30.373 31.8758 29.8837C32.7938 29.374 33.7918 29.7006 34.2851 30.5316L31.1272 32.2849ZM30.413 33.4501C30.6357 34.5434 30.4342 35.536 29.6019 35.9981C28.3901 36.6709 27.4724 36.0275 27.047 35.3189L30.413 33.4501ZM26.7208 34.7314C26.4476 34.2105 26.2616 33.0968 26.7514 32.2484L25.8744 31.8225C25.454 32.8246 25.4238 34.0103 26.0109 35.1255L25.1296 35.6148L25.4558 36.2023L26.3371 35.713C27.1431 37.107 28.6713 37.6677 30.03 36.9134C31.6212 36.0299 31.5033 34.462 31.2453 32.9879L34.6113 31.1191C34.9253 31.7134 35.0026 32.4872 34.6747 33.1656L35.5626 33.5534C35.9055 32.6424 35.7072 31.5355 35.2968 30.7386L36.1781 30.2493L35.8519 29.6617L34.9706 30.151C34.2026 28.9121 32.7532 28.2916 31.3334 29.0799C29.8401 29.909 29.958 31.4769 30.2337 32.781L26.7208 34.7314Z" fill="#210049"/>
<path d="M24.3906 60.1455L20.0994 64.339" stroke="#210049" stroke-linecap="round"/>
<path d="M22.293 58L19.4322 60.7957" stroke="#210049" stroke-linecap="round"/>
<path d="M26.4883 62.2913L23.6275 65.0869" stroke="#210049" stroke-linecap="round"/>
</svg>
