<svg width="72" height="72" viewBox="0 0 72 72" fill="none" xmlns="http://www.w3.org/2000/svg">
<path d="M12.1383 21.8336L57.6901 11.7339C59.1769 11.4042 60.472 12.7911 60.0414 14.252L47.369 57.2407C46.9748 58.5776 45.3683 59.1116 44.2523 58.2765L35.5328 51.7516C35.1869 51.4928 34.7665 51.3529 34.3345 51.3529H22.5556C21.451 51.3529 20.5556 50.4575 20.5556 49.3529V37.644C20.5556 37.1891 20.4005 36.7478 20.1159 36.3929L11.0109 25.0373C10.0841 23.8814 10.6919 22.1543 12.1383 21.8336Z" stroke="#FF2F73" stroke-width="2" stroke-linejoin="round"/>
<path d="M21 51L60 12M60 12L21 36.7143M60 12L35.2857 51" stroke="#FF2F73"/>
<path d="M25.1282 26.285C24.8701 25.2433 24.9954 24.3731 25.8767 23.8838C26.7947 23.3741 27.7927 23.7008 28.2861 24.5317L25.1282 26.285ZM24.414 27.4502C24.6367 28.5435 24.4352 29.5361 23.6029 29.9982C22.3911 30.671 21.4734 30.0276 21.048 29.319L24.414 27.4502ZM20.7218 28.7315C20.4486 28.2106 20.2626 27.0969 20.7524 26.2485L19.8754 25.8226C19.455 26.8247 19.4247 28.0104 20.0119 29.1256L19.1306 29.6149L19.4568 30.2025L20.3381 29.7132C21.1441 31.1072 22.6723 31.6678 24.031 30.9135C25.6222 30.03 25.5043 28.4622 25.2463 26.9881L28.6123 25.1192C28.9263 25.7136 29.0036 26.4873 28.6757 27.1658L29.5635 27.5535C29.9064 26.6426 29.7082 25.5356 29.2978 24.7387L30.179 24.2494L29.8528 23.6619L28.9716 24.1512C28.2036 22.9122 26.7542 22.2917 25.3344 23.08C23.8411 23.9091 23.959 25.477 24.2347 26.7811L20.7218 28.7315Z" fill="#FF2F73"/>
<path d="M18.3877 54.1456L14.0965 58.3391" stroke="#FF2F73" stroke-linecap="round"/>
<path d="M16.291 52L13.4302 54.7957" stroke="#FF2F73" stroke-linecap="round"/>
<path d="M20.4844 56.2913L17.6236 59.0869" stroke="#FF2F73" stroke-linecap="round"/>
</svg>
