<svg width="72" height="72" viewBox="0 0 72 72" fill="none" xmlns="http://www.w3.org/2000/svg">
<path d="M45.8125 6H25.1875C21.7702 6 19 8.68629 19 12V60C19 63.3137 21.7702 66 25.1875 66H45.8125C49.2298 66 52 63.3137 52 60V12C52 8.68629 49.2298 6 45.8125 6Z" stroke="#FF2F73" stroke-width="2" stroke-linecap="round" stroke-linejoin="round"/>
<path d="M25 6H28.15C28.4285 6 28.6955 6.10536 28.8925 6.29289C29.0894 6.48043 29.2 6.73478 29.2 7C29.2 7.53043 29.4212 8.03914 29.8151 8.41421C30.2089 8.78929 30.743 9 31.3 9H39.7C40.257 9 40.7911 8.78929 41.1849 8.41421C41.5788 8.03914 41.8 7.53043 41.8 7C41.8 6.73478 41.9106 6.48043 42.1075 6.29289C42.3044 6.10536 42.5715 6 42.85 6H46" stroke="#FF2F73" stroke-linecap="round" stroke-linejoin="round"/>
<circle cx="35.5" cy="58.5" r="1.5" fill="#FF2F73"/>
</svg>
