<svg width="66" height="66" viewBox="0 0 66 66" fill="none" xmlns="http://www.w3.org/2000/svg">
<path d="M8.63672 27.8124H58.8124V55.7501C58.8124 56.3023 58.3647 56.7501 57.8124 56.7501H9.63672C9.08443 56.7501 8.63672 56.3023 8.63672 55.7501V27.8124Z" stroke="#FF2F73" stroke-width="2"/>
<mask id="path-2-inside-1_5601_64752" fill="white">
<path d="M6.41942 17.1221C6.29133 16.025 7.07512 15.0176 8.17004 14.872L55.9802 8.51361C57.0752 8.36799 58.0666 9.13934 58.1947 10.2365L59.3095 19.7851C59.3575 20.1965 59.0636 20.5743 58.653 20.6289L7.62114 27.4157L6.41942 17.1221Z"/>
</mask>
<path d="M7.62114 27.4157L5.6386 27.6794L5.87052 29.6659L7.85306 29.4022L7.62114 27.4157ZM8.40196 16.8585L56.2122 10.5001L55.7483 6.5271L7.93813 12.8855L8.40196 16.8585ZM56.2122 10.5001L57.3269 20.0488L61.292 19.5215L60.1772 9.97279L56.2122 10.5001ZM58.4211 18.6424L7.38923 25.4292L7.85306 29.4022L58.8849 22.6154L58.4211 18.6424ZM9.60369 27.1521L8.40196 16.8585L4.43687 17.3858L5.6386 27.6794L9.60369 27.1521ZM57.3269 20.0488C57.2469 19.3631 57.7367 18.7334 58.4211 18.6424L58.8849 22.6154C60.3904 22.4152 61.4681 21.03 61.292 19.5215L57.3269 20.0488ZM56.2122 10.5001L56.2122 10.5001L60.1772 9.97279C59.9211 7.77856 57.9382 6.23587 55.7483 6.5271L56.2122 10.5001ZM7.93813 12.8855C5.74827 13.1767 4.1807 15.1915 4.43687 17.3858L8.40196 16.8585L8.40196 16.8585L7.93813 12.8855Z" fill="#FF2F73" mask="url(#path-2-inside-1_5601_64752)"/>
<path d="M22 24.5L27.5 13" stroke="#FF2F73" stroke-width="2" stroke-linejoin="round"/>
<path d="M38.0723 22.1717L43.8696 11.3435" stroke="#FF2F73" stroke-width="2" stroke-linejoin="round"/>
</svg>
