<svg width="56" height="56" viewBox="0 0 56 56" fill="none" xmlns="http://www.w3.org/2000/svg">
<path d="M10.3516 36.483C9.08535 33.834 8.4261 30.9358 8.42185 27.9998C8.42185 19.6362 13.6421 12.4993 21 9.68384" stroke="#FF2F73" stroke-width="2" stroke-linecap="round" stroke-linejoin="round"/>
<path d="M45.6456 19.4362C46.9212 22.09 47.5817 24.9973 47.5781 27.9418C47.5781 36.302 42.3541 43.4406 35 46.2572" stroke="#FF2F73" stroke-width="2" stroke-linecap="round" stroke-linejoin="round"/>
<path d="M14.3729 7.79695L21.1892 9.51582L20.8004 16.7237" stroke="#FF2F73" stroke-width="2" stroke-linecap="round" stroke-linejoin="round"/>
<path d="M40.7238 49.8202L34.1915 46.4661L36.9785 39.4774" stroke="#FF2F73" stroke-width="2" stroke-linecap="round" stroke-linejoin="round"/>
<path d="M34.5 3.5V1M34.5 18.5V21" stroke="#FF2F73" stroke-width="2" stroke-linecap="round" stroke-linejoin="round"/>
<path d="M38 7.25C38 5.17893 36.433 3.5 34.5 3.5C32.567 3.5 31 5.17893 31 7.25C31 9.32107 32.3125 10.0625 34.5 11C36.6875 11.9375 38 12.6789 38 14.75C38 16.8211 36.433 18.5 34.5 18.5C32.567 18.5 31 16.8211 31 14.75" stroke="#FF2F73" stroke-width="2" stroke-linecap="round" stroke-linejoin="round"/>
<path d="M24.9914 42.2119H18.3115H16M24.9914 45.5217H18.4947H16" stroke="#FF2F73" stroke-width="2" stroke-linecap="round"/>
<path d="M25.9996 38.2238C25.9996 38.2238 25.2304 36.9998 22.9227 37C16.0869 37.0005 16.8831 51 22.9227 51C25.8307 51 25.9996 49.1201 25.9996 49.1201" stroke="#FF2F73" stroke-width="2" stroke-linecap="round"/>
</svg>
