<svg width="40" height="63" viewBox="0 0 40 63" fill="none" xmlns="http://www.w3.org/2000/svg">
<rect x="1" y="19.3024" width="37.3093" height="37.2249" rx="4" stroke="#FF2F73" stroke-width="2" stroke-linecap="round" stroke-linejoin="round"/>
<path d="M13.1328 5.34253V7.78542V18.3713M26.1911 5.34253V7.78542V18.3713" stroke="#FF2F73" stroke-width="2" stroke-linecap="round" stroke-linejoin="round"/>
<path d="M26.3622 5.34291H12.9512C11.8466 5.34291 10.9512 4.44748 10.9512 3.34291V3C10.9512 1.89543 11.8466 1 12.9512 1H26.3622C27.4667 1 28.3622 1.89543 28.3622 3V3.34291C28.3622 4.44748 27.4667 5.34291 26.3622 5.34291Z" stroke="#FF2F73" stroke-width="2" stroke-linecap="round" stroke-linejoin="round"/>
<path d="M9.70508 24.2657V51.564" stroke="#FF2F73" stroke-width="2" stroke-linecap="round" stroke-linejoin="round"/>
<path d="M19.6582 24.2657V51.564" stroke="#FF2F73" stroke-width="2" stroke-linecap="round" stroke-linejoin="round"/>
<path d="M29.6094 24.2657V51.564" stroke="#FF2F73" stroke-width="2" stroke-linecap="round" stroke-linejoin="round"/>
<rect x="6.59961" y="57.4574" width="6.52913" height="4.34291" rx="2" stroke="#FF2F73" stroke-width="2" stroke-linecap="round" stroke-linejoin="round"/>
<rect x="26.1836" y="57.4574" width="6.52913" height="4.34291" rx="2" stroke="#FF2F73" stroke-width="2" stroke-linecap="round" stroke-linejoin="round"/>
</svg>
