<?xml version="1.0" encoding="utf-8"?>
<!-- Generator: Adobe Illustrator 27.0.1, SVG Export Plug-In . SVG Version: 6.00 Build 0)  -->
<svg version="1.1" id="Capa_1" xmlns="http://www.w3.org/2000/svg" xmlns:xlink="http://www.w3.org/1999/xlink" x="0px" y="0px"
	 viewBox="0 0 48 48" style="enable-background:new 0 0 48 48;" xml:space="preserve">
<style type="text/css">
	.st0{fill:none;stroke:#FFFFFF;stroke-miterlimit:10;}
	.st1{fill:#FFFFFF;}
</style>
<path class="st0" d="M25,40c-0.7,0-1.3,0-2,0c-0.4,0-0.8-0.1-1.2-0.1c-3.2-0.5-6-1.7-8.4-3.9c-2.8-2.5-4.5-5.5-5.2-9.2
	C8.1,26.2,8.1,25.6,8,25c0-0.7,0-1.3,0-2c0.1-0.7,0.2-1.4,0.3-2.1C9.6,14,15.5,8.7,22.4,8.1c3.4-0.3,6.7,0.3,9.6,2.1
	c5.7,3.5,8.4,8.7,7.9,15.4c-0.2,3.2-1.5,6-3.5,8.5c-2.5,3.1-5.7,5-9.6,5.7C26.2,39.9,25.6,39.9,25,40z"/>
<path class="st1" d="M22.6,21.9c-0.3,0-0.7-0.1-1,0c-0.3,0-0.6,0-0.9,0.1c-3.2,0.6-5.2,3.7-4.6,6.7c0.7,3.2,3.9,5.1,7,4.3
	c2.6-0.7,4.3-2.9,4.3-5.6c0-2.1,0-4.1,0-6.2c0-0.1,0-0.2,0-0.4c1.4,1,2.9,1.6,4.6,1.6c0-1,0-2,0-2.9c-2.8-0.3-4.3-1.8-4.7-4.6
	c-1,0-2,0-2.9,0c0,0.2,0,0.3,0,0.4c0,4,0,7.9,0,11.9c0,0.2,0,0.4,0,0.6c-0.1,1.4-1.3,2.4-2.6,2.4c-1.4,0-2.6-1-2.7-2.4
	c-0.2-1.3,0.7-2.6,2-2.9c0.5-0.1,1,0,1.5,0C22.6,23.9,22.6,22.9,22.6,21.9z"/>
</svg>
